<?xml version="1.0" standalone="no"?><svg xmlns="http://www.w3.org/2000/svg" xmlns:xlink="http://www.w3.org/1999/xlink" style="isolation:isolate" viewBox="0 0 44 44" width="44" height="44"><defs><clipPath id="_clipPath_tPqFjSVeAjgI1yK5BDCrwh3K8aTjFCgF"><rect width="44" height="44"/></clipPath></defs><g clip-path="url(#_clipPath_tPqFjSVeAjgI1yK5BDCrwh3K8aTjFCgF)"><path d=" M 17.32 23.492 C 16.595 22.585 15.803 21.734 14.951 20.946 C 14.126 20.188 13.328 19.403 12.557 18.591 C 11.83 17.83 11.2 16.982 10.681 16.066 C 10.176 15.169 9.919 14.119 9.919 12.943 C 9.919 11.676 10.152 10.801 10.634 10.27 C 11.108 9.744 11.778 9.477 12.624 9.477 C 13.466 9.477 14.136 9.744 14.614 10.27 C 15.086 10.795 15.326 11.695 15.326 12.943 L 15.326 14.171 L 19.834 14.171 L 19.834 13.279 C 19.834 10.618 19.215 8.55 17.996 7.134 C 16.782 5.723 14.928 5.007 12.484 5.007 C 10.04 5.007 8.186 5.723 6.972 7.134 C 5.753 8.55 5.134 10.618 5.134 13.279 C 5.134 14.849 5.38 16.23 5.863 17.383 C 6.325 18.505 6.94 19.556 7.693 20.508 C 8.427 21.425 9.224 22.28 10.062 23.052 C 10.886 23.811 11.685 24.597 12.456 25.409 C 13.182 26.17 13.812 27.018 14.332 27.932 C 14.838 28.834 15.094 29.883 15.094 31.057 C 15.094 32.308 14.838 33.202 14.329 33.71 C 13.822 34.217 13.138 34.475 12.299 34.475 C 11.456 34.475 10.774 34.217 10.267 33.71 C 9.76 33.202 9.502 32.31 9.502 31.055 L 9.502 28.821 L 4.994 28.821 L 4.994 30.719 C 4.994 33.381 5.629 35.448 6.877 36.864 C 8.12 38.276 9.992 38.993 12.437 38.993 C 14.883 38.993 16.753 38.277 17.998 36.864 C 19.246 35.448 19.879 33.381 19.879 30.719 C 19.879 29.154 19.635 27.772 19.151 26.615 C 18.689 25.494 18.073 24.442 17.32 23.491 M 34.221 15.339 C 34.221 16.722 33.922 17.699 33.335 18.24 C 32.752 18.774 32.032 19.046 31.193 19.046 C 30.322 19.046 29.593 18.774 29.026 18.238 C 28.455 17.697 28.164 16.722 28.164 15.339 L 28.164 13.472 C 28.164 11.91 28.454 10.876 29.051 10.312 C 29.626 9.762 30.397 9.462 31.193 9.478 C 32.032 9.478 32.753 9.758 33.336 10.312 C 33.932 10.876 34.221 11.91 34.221 13.472 L 34.221 15.34 L 34.221 15.339 Z  M 34.221 30.576 C 34.188 32.142 33.891 33.166 33.313 33.713 C 32.746 34.25 32.032 34.522 31.193 34.522 C 30.353 34.522 29.633 34.251 29.051 33.715 C 28.455 33.168 28.164 32.14 28.164 30.575 L 28.164 27.463 C 28.164 26.087 28.435 25.075 28.968 24.456 C 29.508 23.833 30.255 23.516 31.193 23.516 C 32.13 23.516 32.878 23.833 33.416 24.456 C 33.95 25.075 34.221 26.087 34.221 27.463 L 34.221 30.576 Z  M 39.006 13.279 C 39.006 10.621 38.334 8.553 37.011 7.139 C 35.688 5.724 33.731 5.007 31.193 5.007 C 28.654 5.007 26.697 5.724 25.374 7.137 C 24.051 8.553 23.38 10.619 23.38 13.279 L 23.38 14.333 C 23.38 17.577 24.412 19.803 26.448 20.948 L 26.697 21.087 L 26.45 21.231 C 25.374 21.849 24.584 22.749 24.109 23.907 C 23.625 25.08 23.38 26.485 23.38 28.084 L 23.38 30.719 C 23.38 33.381 24.051 35.445 25.374 36.86 C 26.695 38.274 28.654 38.993 31.193 38.993 C 33.731 38.993 35.688 38.274 37.011 36.861 C 38.334 35.447 39.006 33.379 39.006 30.721 L 39.006 28.084 C 39.006 26.486 38.76 25.081 38.277 23.907 C 37.822 22.776 36.996 21.832 35.936 21.231 L 35.691 21.091 L 35.936 20.949 C 37.972 19.771 39.006 17.545 39.006 14.333 L 39.006 13.279 Z " fill-rule="evenodd" fill="rgb(0,0,0)"/></g></svg>
